<svg xmlns="http://www.w3.org/2000/svg" xmlns:xlink="http://www.w3.org/1999/xlink" xml:space="preserve" viewBox="0 0 1200 800"><path fill="#cfaa86" d="M0 0h1200v800H0z"/><defs><path id="a" d="M0 0h1200v800H0z"/></defs><clipPath id="b"><use xlink:href="#a" overflow="visible"/></clipPath><g clip-path="url(#b)"><path fill="#fff" d="M1214.712 170.696a330 330 0 0 1-7.813 2.488c-4.499 1.361-9.214 1.997-13.818 3.023-2.17.483-4.516.726-6.421 1.749-7.78 4.177-16.182 5.372-24.804 5.803-1.386.069-2.828.226-4.124.683-10.796 3.809-22.092 5.138-33.316 6.829-2.749.414-5.503.89-8.272 1.053-13.07.77-26.148 1.418-39.219 2.174-1.656.096-3.306.497-4.931.876-10.124 2.363-20.159 3.235-30.622 1.336-5.804-1.054-12.06.507-18.118.688-5.78.173-11.768 1.037-17.299-.13-6.663-1.405-11.777.362-15.803 4.956-4.603 5.252-10.466 5.746-16.601 6.078-1.909.103-4.055-.509-5.704.16-9.831 3.992-20.174 3.797-30.471 4.297-8.557.416-16.469 1.435-24.547 6.242-10.259 6.105-22.695 7.524-34.899 6.048-4.509-.545-8.659-.13-13.074.957-6.723 1.656-13.834 1.773-20.523 3.528-16.654 4.37-34.253 3.619-50.586 9.828-5.338 2.029-10.933 3.042-16.362 5.396-6.286 2.726-14.141 1.892-21.327 2.437-1.628.124-3.51-1.052-4.933-.586-9.511 3.119-19.844 1.352-29.268 5.422-5.312 2.294-11.18 3.3-17.157 1.356-6.883-2.239-13.624-1.491-20.517.825-7.061 2.373-14.378 4.172-21.716 5.463-4.279.753-8.882.462-13.228-.151-6.894-.972-13.579-2.989-19.744 2.626-1.888 1.72-5.123 2.18-7.839 2.729-5.928 1.197-11.945 1.954-17.868 3.168-1.777.364-3.293 1.858-5.055 2.466-4.151 1.431-8.416 3.814-12.568 3.685-7.567-.234-13.974 2.443-20.794 4.864-6.469 2.296-13.46 3.235-20.287 4.377-6.023 1.007-12.13 1.521-18.212 2.136-1.634.166-3.465.323-4.942-.225-7.898-2.929-15.428-1.011-22.834 1.62-6.824 2.424-13.377 5.67-20.287 7.772-4.711 1.433-9.819 1.968-14.772 2.106-7.275.203-13.542 3.331-19.572 6.557-3.32 1.776-6.314 3.045-10.034 3.334-4.15.323-8.351.947-12.346 2.083-4.931 1.402-9.575 1.352-14.711.802-4.97-.533-10.368 1.431-15.363 2.988-8.479 2.643-16.797 5.802-25.167 8.79-13.222 4.719-27.281 5.085-40.874 7.882-11.385 2.343-22.87 4.2-34.297 6.343-4.518.848-9.025 1.751-13.535 2.645l118.149 640.349 935.643-172.632zM315.363 403.539l65.675-12.117 12.118 65.675-65.675 12.118zm25.955 140.672 65.675-12.117 12.117 65.675-65.675 12.118zm25.955 140.672 65.675-12.117 12.118 65.675-65.675 12.117zm38.073 206.348-12.117-65.675 65.675-12.117 12.118 65.675z"/><defs><path id="c" d="M1214.712 179.456a330 330 0 0 1-7.813 2.488c-4.499 1.361-9.214 1.997-13.818 3.023-2.17.483-4.516.726-6.421 1.749-7.78 4.177-16.182 5.372-24.804 5.803-1.386.069-2.828.226-4.124.683-10.796 3.809-22.092 5.138-33.316 6.828-2.749.414-5.503.89-8.272 1.053-13.07.77-26.148 1.418-39.219 2.174-1.656.096-3.306.497-4.931.877-10.124 2.363-20.159 3.235-30.622 1.336-5.804-1.054-12.06.507-18.118.688-5.78.173-11.768 1.037-17.299-.13-6.663-1.405-11.777.362-15.803 4.956-4.603 5.252-10.466 5.746-16.601 6.078-1.909.103-4.055-.509-5.704.16-9.831 3.992-20.174 3.797-30.471 4.297-8.557.416-16.469 1.434-24.547 6.242-10.259 6.105-22.695 7.524-34.899 6.048-4.509-.545-8.659-.13-13.074.957-6.723 1.656-13.834 1.773-20.523 3.528-16.654 4.369-34.253 3.619-50.586 9.828-5.338 2.029-10.933 3.042-16.362 5.396-6.286 2.726-14.141 1.892-21.327 2.437-1.628.124-3.51-1.052-4.933-.586-9.511 3.119-19.844 1.352-29.268 5.422-5.312 2.294-11.18 3.3-17.157 1.356-6.883-2.239-13.624-1.491-20.517.825-7.061 2.373-14.378 4.172-21.716 5.463-4.279.753-8.882.462-13.228-.151-6.894-.972-13.579-2.989-19.744 2.626-1.888 1.72-5.123 2.18-7.839 2.729-5.928 1.197-11.945 1.954-17.868 3.168-1.777.364-3.293 1.858-5.055 2.466-4.151 1.431-8.416 3.814-12.568 3.685-7.567-.234-13.974 2.443-20.794 4.864-6.469 2.296-13.46 3.235-20.287 4.377-6.023 1.007-12.13 1.521-18.212 2.136-1.634.166-3.465.323-4.942-.225-7.898-2.929-15.428-1.011-22.834 1.62-6.824 2.424-13.377 5.67-20.287 7.772-4.711 1.433-9.819 1.968-14.772 2.106-7.275.203-13.542 3.331-19.572 6.557-3.32 1.776-6.314 3.045-10.034 3.334-4.15.323-8.351.947-12.346 2.083-4.931 1.402-9.575 1.352-14.711.802-4.97-.533-10.368 1.431-15.363 2.988-8.479 2.643-16.797 5.802-25.167 8.79-13.222 4.719-27.281 5.085-40.874 7.882-11.385 2.343-22.87 4.2-34.297 6.343-4.518.848-9.025 1.751-13.535 2.645l118.149 640.349 935.643-172.632zM315.363 412.299l65.675-12.118 12.118 65.675-65.675 12.117zm25.955 140.672 65.675-12.117 12.117 65.675-65.675 12.118zm25.955 140.673 65.675-12.117 12.118 65.675-65.675 12.117zm38.073 206.347-12.117-65.675 65.675-12.117 12.118 65.675z"/></defs><use xlink:href="#c" fill="#bdb6a4" overflow="visible"/><clipPath id="d"><use xlink:href="#c" overflow="visible"/></clipPath><g clip-path="url(#d)"><path fill="#fff" d="m269.246 56.766 2.95-.545 214.417 1162.387-2.95.544zM353.794 41.17l2.95-.544L571.16 1203.013l-2.95.544zM438.342 25.574l2.95-.544L655.71 1187.416l-2.95.545zM522.89 9.978l2.95-.544L740.256 1171.82l-2.95.545zM607.438-5.617l2.95-.544 214.417 1162.386-2.95.544zM691.987-21.214l2.95-.544 214.417 1162.387-2.95.544zM776.534-36.81l2.95-.544 214.417 1162.387-2.95.544zM861.083-52.405l2.95-.544 214.417 1162.386-2.95.544zM945.63-68.002l2.951-.544 214.416 1162.387-2.95.544zM1030.18-83.597l2.95-.544 214.416 1162.387-2.95.545zM1114.727-99.193l2.95-.544 214.417 1162.387-2.95.544zM1199.275-114.79l2.95-.544 214.417 1162.388-2.95.544z"/><path fill="#fff" d="M162.716 122.244 1325.102-92.054l.544 2.95L163.26 125.194zM178.315 206.789 1340.7-7.509l.544 2.95L178.86 209.74zM193.914 291.335 1356.301 77.037l.544 2.95L194.458 294.285zM209.512 375.88 1371.9 161.58l.544 2.95L210.056 378.83zM225.111 460.425 1387.5 246.127l.544 2.95L225.655 463.376zM240.71 544.971l1162.387-214.298.544 2.95L241.253 547.921zM256.316 629.496l1162.387-214.298.544 2.95L256.86 632.446zM271.92 714.035l1162.386-214.298.544 2.95L272.464 716.985zM287.517 798.585l1162.388-214.298.544 2.95L288.06 801.536zM303.122 883.124l1162.387-214.298.543 2.95L303.666 886.076zM318.726 967.764l1162.387-214.416.544 2.95L319.271 970.714zM334.254 1052.21l1162.387-214.18.543 2.951-1162.386 214.18z"/></g></g></svg>